<svg xmlns="http://www.w3.org/2000/svg" viewBox="0 0 256 228">
  <path fill="#673AB8" d="M210.483 73.824c7.053-7.054 13.43-14.622 18.944-22.58-12.04-11.196-26.047-20.402-41.467-26.986C169.693 9.431 151.872 3.28 133.143 1.22 127.786.536 122.406.177 116.998.002c-1.36-.044-2.72-.061-4.08-.061s-2.72.017-4.08.06C103.43.177 98.05.537 92.693 1.221 73.964 3.281 56.143 9.432 37.876 24.259 22.456 30.842 8.45 40.048-3.589 51.244c5.514 7.958 11.89 15.526 18.943 22.58 24.204-17.806 54.52-26.05 85.34-23.243 30.82 2.808 59.133 16.196 79.789 37.713z"/>
  <path fill="#623FB8" d="M110.55 226.911c-7.896-3.684-14.938-8.52-20.983-14.37-6.045-5.85-11.092-12.706-15.022-20.408-7.86-15.404-11.816-32.656-11.816-51.397 0-18.741 3.956-35.993 11.816-51.397 3.93-7.702 8.977-14.558 15.022-20.408 6.045-5.85 13.087-10.686 20.983-14.37 15.792-7.368 33.656-11.052 53.23-11.052s37.438 3.684 53.23 11.052c7.896 3.684 14.938 8.52 20.983 14.37 6.045 5.85 11.092 12.706 15.022 20.408 7.86 15.404 11.816 32.656 11.816 51.397 0 18.741-3.956 35.993-11.816 51.397-3.93 7.702-8.977 14.558-15.022 20.408-6.045 5.85-13.087 10.686-20.983 14.37-15.792 7.368-33.656 11.052-53.23 11.052s-37.438-3.684-53.23-11.052z"/>
  <ellipse cx="128" cy="93.5" fill="#FFF" rx="87.5" ry="67.5"/>
  <ellipse cx="129" cy="93.5" fill="#623FB8" rx="75" ry="57.5"/>
  <ellipse cx="129" cy="93.5" fill="#FFF" rx="16.5" ry="41"/>
</svg>